REM DIRINDEX 1\2,1\3,1\4,1\5,1\6
REM DIRNAME "folder01","folder02","folder03","folder04","folder05","folder06"
TITLE ""
FILE "Disc4Track46.mp3" MP3
  TRACK 01 AUDIO
    TITLE "3:cjc161_07541"
    INDEX 01 00:00:00
  TRACK 02 AUDIO
    TITLE "4:cjc161_07542"
    INDEX 01 00:01:14
  TRACK 03 AUDIO
    TITLE "5:cjc161_07543"
    INDEX 01 00:01:72
  TRACK 04 AUDIO
    TITLE "6:cjc161_07544"
    INDEX 01 00:03:16
  TRACK 05 AUDIO
    TITLE "0:"
    INDEX 01 00:04:71
  TRACK 06 AUDIO
    TITLE "3:cjc161_07545"
    INDEX 01 00:05:31
  TRACK 07 AUDIO
    TITLE "4:cjc161_07546"
    INDEX 01 00:06:44
  TRACK 08 AUDIO
    TITLE "5:cjc161_07547"
    INDEX 01 00:07:46
  TRACK 09 AUDIO
    TITLE "6:cjc161_07548"
    INDEX 01 00:08:55
  TRACK 10 AUDIO
    TITLE "0:"
    INDEX 01 00:10:30
  TRACK 11 AUDIO
    TITLE "3:cjc161_07549"
    INDEX 01 00:10:71
  TRACK 12 AUDIO
    TITLE "4:cjc161_07550"
    INDEX 01 00:12:29
  TRACK 13 AUDIO
    TITLE "5:cjc161_07551"
    INDEX 01 00:13:48
  TRACK 14 AUDIO
    TITLE "6:cjc161_07552"
    INDEX 01 00:15:06
  TRACK 15 AUDIO
    TITLE "0:"
    INDEX 01 00:17:32
  TRACK 16 AUDIO
    TITLE "3:cjc161_07553"
    INDEX 01 00:17:66
  TRACK 17 AUDIO
    TITLE "4:cjc161_07554"
    INDEX 01 00:19:19
  TRACK 18 AUDIO
    TITLE "5:cjc161_07555"
    INDEX 01 00:20:42
  TRACK 19 AUDIO
    TITLE "6:cjc161_07556"
    INDEX 01 00:21:69
  TRACK 20 AUDIO
    TITLE "0:"
    INDEX 01 00:27:29
  TRACK 21 AUDIO
    TITLE "3:cjc161_07557"
    INDEX 01 00:27:60
  TRACK 22 AUDIO
    TITLE "4:cjc161_07558"
    INDEX 01 00:29:12
  TRACK 23 AUDIO
    TITLE "5:cjc161_07559"
    INDEX 01 00:30:13
  TRACK 24 AUDIO
    TITLE "6:cjc161_07560"
    INDEX 01 00:31:38
  TRACK 25 AUDIO
    TITLE "0:"
    INDEX 01 00:33:47
  TRACK 26 AUDIO
    TITLE "3:cjc161_07561"
    INDEX 01 00:34:03
  TRACK 27 AUDIO
    TITLE "4:cjc161_07562"
    INDEX 01 00:35:20
  TRACK 28 AUDIO
    TITLE "5:cjc161_07563"
    INDEX 01 00:37:23
  TRACK 29 AUDIO
    TITLE "0:"
    INDEX 01 00:38:42
  TRACK 30 AUDIO
    TITLE "3:cjc161_07564"
    INDEX 01 00:39:04
  TRACK 31 AUDIO
    TITLE "4:cjc161_07565"
    INDEX 01 00:40:27
  TRACK 32 AUDIO
    TITLE "5:cjc161_07566"
    INDEX 01 00:41:74
  TRACK 33 AUDIO
    TITLE "6:cjc161_07567"
    INDEX 01 00:43:22
  TRACK 34 AUDIO
    TITLE "0:"
    INDEX 01 00:49:66
  TRACK 35 AUDIO
    TITLE "3:cjc161_07568"
    INDEX 01 00:50:22
  TRACK 36 AUDIO
    TITLE "4:cjc161_07569"
    INDEX 01 00:51:53
  TRACK 37 AUDIO
    TITLE "5:cjc161_07570"
    INDEX 01 00:52:60
  TRACK 38 AUDIO
    TITLE "6:cjc161_07571"
    INDEX 01 00:54:14
  TRACK 39 AUDIO
    TITLE "0:"
    INDEX 01 01:00:26
  TRACK 40 AUDIO
    TITLE "3:cjc161_07572"
    INDEX 01 01:00:60
  TRACK 41 AUDIO
    TITLE "4:cjc161_07573"
    INDEX 01 01:02:15
  TRACK 42 AUDIO
    TITLE "5:cjc161_07574"
    INDEX 01 01:03:36
  TRACK 43 AUDIO
    TITLE "6:cjc161_07575"
    INDEX 01 01:04:67
  TRACK 44 AUDIO
    TITLE "0:"
    INDEX 01 01:08:71
  TRACK 45 AUDIO
    TITLE "3:cjc161_07576"
    INDEX 01 01:09:27
  TRACK 46 AUDIO
    TITLE "4:cjc161_07577"
    INDEX 01 01:10:42
  TRACK 47 AUDIO
    TITLE "5:cjc161_07578"
    INDEX 01 01:12:45
  TRACK 48 AUDIO
    TITLE "6:cjc161_07579"
    INDEX 01 01:13:56
  TRACK 49 AUDIO
    TITLE "0:"
    INDEX 01 01:15:39
  TRACK 50 AUDIO
    TITLE "3:cjc161_07580"
    INDEX 01 01:15:71
  TRACK 51 AUDIO
    TITLE "4:cjc161_07581"
    INDEX 01 01:17:33
  TRACK 52 AUDIO
    TITLE "5:cjc161_07582"
    INDEX 01 01:18:40
  TRACK 53 AUDIO
    TITLE "6:cjc161_07583"
    INDEX 01 01:20:00
  TRACK 54 AUDIO
    TITLE "0:"
    INDEX 01 01:24:15
  TRACK 55 AUDIO
    TITLE "3:cjc161_07584"
    INDEX 01 01:24:46
  TRACK 56 AUDIO
    TITLE "4:cjc161_07585"
    INDEX 01 01:26:00
  TRACK 57 AUDIO
    TITLE "5:cjc161_07586"
    INDEX 01 01:28:73
  TRACK 58 AUDIO
    TITLE "6:cjc161_07587"
    INDEX 01 01:30:23
  TRACK 59 AUDIO
    TITLE "0:"
    INDEX 01 01:32:14
  TRACK 60 AUDIO
    TITLE "3:cjc161_07588"
    INDEX 01 01:32:42
  TRACK 61 AUDIO
    TITLE "4:cjc161_07589"
    INDEX 01 01:33:65
  TRACK 62 AUDIO
    TITLE "5:cjc161_07590"
    INDEX 01 01:35:17
  TRACK 63 AUDIO
    TITLE "6:cjc161_07591"
    INDEX 01 01:36:38
  TRACK 64 AUDIO
    TITLE "0:"
    INDEX 01 01:39:60
  TRACK 65 AUDIO
    TITLE "3:cjc161_07592"
    INDEX 01 01:40:16
  TRACK 66 AUDIO
    TITLE "4:cjc161_07593"
    INDEX 01 01:41:49
  TRACK 67 AUDIO
    TITLE "5:cjc161_07594"
    INDEX 01 01:42:56
  TRACK 68 AUDIO
    TITLE "0:"
    INDEX 01 01:44:16
  TRACK 69 AUDIO
    TITLE "3:cjc161_07595"
    INDEX 01 01:44:53
  TRACK 70 AUDIO
    TITLE "4:cjc161_07596"
    INDEX 01 01:45:74
  TRACK 71 AUDIO
    TITLE "5:cjc161_07597"
    INDEX 01 01:47:08
  TRACK 72 AUDIO
    TITLE "0:"
    INDEX 01 01:48:29
  TRACK 73 AUDIO
    TITLE "3:cjc161_07598"
    INDEX 01 01:48:68
  TRACK 74 AUDIO
    TITLE "4:cjc161_07599"
    INDEX 01 01:50:20
  TRACK 75 AUDIO
    TITLE "5:cjc161_07600"
    INDEX 01 01:51:37
  TRACK 76 AUDIO
    TITLE "6:cjc161_07601"
    INDEX 01 01:52:62
  TRACK 77 AUDIO
    TITLE "0:"
    INDEX 01 01:54:51
